<mxfile host="app.diagrams.net" modified="2024-01-02T14:48:46.883Z" agent="Mozilla/5.0 (Windows NT 10.0; Win64; x64) AppleWebKit/537.36 (KHTML, like Gecko) Chrome/120.0.0.0 Safari/537.36" version="22.1.16" etag="KHOercnSkxUVS1BKiOU6" type="device">
  <diagram id="FHLm_pvd5-jqZSsv3KOB" name="第1頁">
    <mxGraphModel dx="3194" dy="459" grid="0" gridSize="10" guides="1" tooltips="1" connect="1" arrows="1" fold="1" page="0" pageScale="1" pageWidth="827" pageHeight="1169" math="0" shadow="0">
      <root>
        <mxCell id="0" />
        <mxCell id="1" parent="0" />
        <mxCell id="McjDVjIMsSs2UeSFPrv5-2" value="用戶介面" style="shape=folder;fontStyle=1;spacingTop=10;tabWidth=40;tabHeight=14;tabPosition=left;html=1;whiteSpace=wrap;fontSize=16;" parent="1" vertex="1">
          <mxGeometry x="-2304" y="56" width="97" height="69" as="geometry" />
        </mxCell>
        <mxCell id="McjDVjIMsSs2UeSFPrv5-3" value="業務邏輯" style="shape=folder;fontStyle=1;spacingTop=10;tabWidth=40;tabHeight=14;tabPosition=left;html=1;whiteSpace=wrap;fontSize=16;" parent="1" vertex="1">
          <mxGeometry x="-1974" y="102" width="97" height="69" as="geometry" />
        </mxCell>
        <mxCell id="McjDVjIMsSs2UeSFPrv5-4" value="數據訪問" style="shape=folder;fontStyle=1;spacingTop=10;tabWidth=40;tabHeight=14;tabPosition=left;html=1;whiteSpace=wrap;fontSize=16;" parent="1" vertex="1">
          <mxGeometry x="-2168" y="151" width="97" height="69" as="geometry" />
        </mxCell>
        <mxCell id="McjDVjIMsSs2UeSFPrv5-5" value="權限管理" style="shape=folder;fontStyle=1;spacingTop=10;tabWidth=40;tabHeight=14;tabPosition=left;html=1;whiteSpace=wrap;fontSize=16;" parent="1" vertex="1">
          <mxGeometry x="-2313" y="270" width="97" height="69" as="geometry" />
        </mxCell>
        <mxCell id="McjDVjIMsSs2UeSFPrv5-6" value="異常處理" style="shape=folder;fontStyle=1;spacingTop=10;tabWidth=40;tabHeight=14;tabPosition=left;html=1;whiteSpace=wrap;fontSize=16;" parent="1" vertex="1">
          <mxGeometry x="-2007" y="297" width="97" height="69" as="geometry" />
        </mxCell>
        <mxCell id="NZA8zCMv7NOAUtkrST4Q-1" value="" style="html=1;verticalAlign=bottom;labelBackgroundColor=none;endArrow=block;endFill=1;dashed=1;rounded=0;entryX=0;entryY=0;entryDx=68.5;entryDy=14;entryPerimeter=0;exitX=0.5;exitY=1;exitDx=0;exitDy=0;exitPerimeter=0;dashPattern=8 8;" edge="1" parent="1" source="McjDVjIMsSs2UeSFPrv5-2" target="McjDVjIMsSs2UeSFPrv5-5">
          <mxGeometry width="160" relative="1" as="geometry">
            <mxPoint x="-2277" y="175" as="sourcePoint" />
            <mxPoint x="-2202" y="187" as="targetPoint" />
          </mxGeometry>
        </mxCell>
        <mxCell id="NZA8zCMv7NOAUtkrST4Q-2" value="" style="html=1;verticalAlign=bottom;labelBackgroundColor=none;endArrow=block;endFill=1;dashed=1;rounded=0;entryX=0;entryY=0;entryDx=0;entryDy=27.75;entryPerimeter=0;exitX=0;exitY=0;exitDx=97;exitDy=41.5;exitPerimeter=0;dashPattern=8 8;" edge="1" parent="1" source="McjDVjIMsSs2UeSFPrv5-2" target="McjDVjIMsSs2UeSFPrv5-4">
          <mxGeometry width="160" relative="1" as="geometry">
            <mxPoint x="-2245" y="135" as="sourcePoint" />
            <mxPoint x="-2234" y="294" as="targetPoint" />
          </mxGeometry>
        </mxCell>
        <mxCell id="NZA8zCMv7NOAUtkrST4Q-3" value="" style="html=1;verticalAlign=bottom;labelBackgroundColor=none;endArrow=block;endFill=1;dashed=1;rounded=0;exitX=0;exitY=0;exitDx=0;exitDy=55.25;exitPerimeter=0;dashPattern=8 8;entryX=0;entryY=0;entryDx=97;entryDy=27.75;entryPerimeter=0;" edge="1" parent="1" source="McjDVjIMsSs2UeSFPrv5-3" target="McjDVjIMsSs2UeSFPrv5-4">
          <mxGeometry width="160" relative="1" as="geometry">
            <mxPoint x="-2235" y="145" as="sourcePoint" />
            <mxPoint x="-1996" y="230" as="targetPoint" />
          </mxGeometry>
        </mxCell>
        <mxCell id="NZA8zCMv7NOAUtkrST4Q-4" value="" style="html=1;verticalAlign=bottom;labelBackgroundColor=none;endArrow=block;endFill=1;dashed=1;rounded=0;entryX=0;entryY=0;entryDx=68.5;entryDy=14;entryPerimeter=0;exitX=0.5;exitY=1;exitDx=0;exitDy=0;exitPerimeter=0;dashPattern=8 8;" edge="1" parent="1" source="McjDVjIMsSs2UeSFPrv5-3" target="McjDVjIMsSs2UeSFPrv5-6">
          <mxGeometry width="160" relative="1" as="geometry">
            <mxPoint x="-2225" y="155" as="sourcePoint" />
            <mxPoint x="-2214" y="314" as="targetPoint" />
          </mxGeometry>
        </mxCell>
        <mxCell id="NZA8zCMv7NOAUtkrST4Q-5" value="" style="html=1;verticalAlign=bottom;labelBackgroundColor=none;endArrow=block;endFill=1;dashed=1;rounded=0;entryX=0.25;entryY=1;entryDx=0;entryDy=0;entryPerimeter=0;dashPattern=8 8;exitX=0;exitY=0;exitDx=97;exitDy=41.5;exitPerimeter=0;" edge="1" parent="1" source="McjDVjIMsSs2UeSFPrv5-5" target="McjDVjIMsSs2UeSFPrv5-3">
          <mxGeometry width="160" relative="1" as="geometry">
            <mxPoint x="-2151" y="442" as="sourcePoint" />
            <mxPoint x="-2204" y="324" as="targetPoint" />
          </mxGeometry>
        </mxCell>
        <mxCell id="NZA8zCMv7NOAUtkrST4Q-6" value="" style="html=1;verticalAlign=bottom;labelBackgroundColor=none;endArrow=block;endFill=1;dashed=1;rounded=0;entryX=0.5;entryY=1;entryDx=0;entryDy=0;entryPerimeter=0;exitX=0;exitY=0;exitDx=97;exitDy=27.75;exitPerimeter=0;dashPattern=8 8;" edge="1" parent="1" source="McjDVjIMsSs2UeSFPrv5-5" target="McjDVjIMsSs2UeSFPrv5-4">
          <mxGeometry width="160" relative="1" as="geometry">
            <mxPoint x="-2205" y="175" as="sourcePoint" />
            <mxPoint x="-2194" y="334" as="targetPoint" />
          </mxGeometry>
        </mxCell>
      </root>
    </mxGraphModel>
  </diagram>
</mxfile>
